<?xml version="1.0" encoding="utf-8"?>
<!-- Generator: Circuit Diagram, cdlibrary.dll 4.0.0.0 -->
<!DOCTYPE svg PUBLIC "-//W3C//DTD SVG 1.1//EN" "http://www.w3.org/Graphics/SVG/1.1/DTD/svg11.dtd">
<svg version="1.1" width="820" height="540" xmlns="http://www.w3.org/2000/svg">
	<line x1="310" y1="250" x2="310" y2="350" style="stroke:rgba(255, 165, 0, 255);stroke-linecap:square;stroke-width:2" />
	<line x1="190" y1="350" x2="310" y2="350" style="stroke:rgba(255, 165, 0, 255);stroke-linecap:square;stroke-width:2" />
	<line x1="190" y1="320" x2="190" y2="350" style="stroke:rgba(255, 165, 0, 255);stroke-linecap:square;stroke-width:2" />
	<line x1="170" y1="320" x2="190" y2="320" style="stroke:rgba(255, 165, 0, 255);stroke-linecap:square;stroke-width:2" />
	<line x1="570" y1="220" x2="600" y2="220" style="stroke:rgba(100, 149, 237, 255);stroke-linecap:square;stroke-width:2" />
	<line x1="600" y1="220" x2="600" y2="270" style="stroke:rgba(100, 149, 237, 255);stroke-linecap:square;stroke-width:2" />
	<line x1="600" y1="270" x2="800" y2="270" style="stroke:rgba(100, 149, 237, 255);stroke-linecap:square;stroke-width:2" />
	<line x1="800" y1="270" x2="800" y2="500" style="stroke:rgba(100, 149, 237, 255);stroke-linecap:square;stroke-width:2" />
	<line x1="780" y1="500" x2="800" y2="500" style="stroke:rgba(100, 149, 237, 255);stroke-linecap:square;stroke-width:2" />
	<line x1="570" y1="210" x2="610" y2="210" style="stroke:rgba(255, 165, 0, 255);stroke-linecap:square;stroke-width:2" />
	<line x1="610" y1="210" x2="610" y2="280" style="stroke:rgba(255, 165, 0, 255);stroke-linecap:square;stroke-width:2" />
	<line x1="610" y1="280" x2="790" y2="280" style="stroke:rgba(255, 165, 0, 255);stroke-linecap:square;stroke-width:2" />
	<line x1="790" y1="280" x2="790" y2="490" style="stroke:rgba(255, 165, 0, 255);stroke-linecap:square;stroke-width:2" />
	<line x1="780" y1="490" x2="790" y2="490" style="stroke:rgba(255, 165, 0, 255);stroke-linecap:square;stroke-width:2" />
	<line x1="570" y1="170" x2="620" y2="170" style="stroke:rgba(34, 139, 34, 255);stroke-linecap:square;stroke-width:2" />
	<line x1="620" y1="170" x2="620" y2="290" style="stroke:rgba(34, 139, 34, 255);stroke-linecap:square;stroke-width:2" />
	<line x1="620" y1="290" x2="780" y2="290" style="stroke:rgba(34, 139, 34, 255);stroke-linecap:square;stroke-width:2" />
	<line x1="780" y1="290" x2="780" y2="450" style="stroke:rgba(34, 139, 34, 255);stroke-linecap:square;stroke-width:2" />
	<line x1="380" y1="190" x2="450" y2="190" style="stroke:rgba(100, 149, 237, 255);stroke-linecap:square;stroke-width:2" />
	<line x1="380" y1="190" x2="380" y2="270" style="stroke:rgba(100, 149, 237, 255);stroke-linecap:square;stroke-width:2" />
	<line x1="380" y1="270" x2="590" y2="270" style="stroke:rgba(100, 149, 237, 255);stroke-linecap:square;stroke-width:2" />
	<line x1="590" y1="270" x2="590" y2="480" style="stroke:rgba(100, 149, 237, 255);stroke-linecap:square;stroke-width:2" />
	<line x1="590" y1="480" x2="660" y2="480" style="stroke:rgba(100, 149, 237, 255);stroke-linecap:square;stroke-width:2" />
	<line x1="400" y1="180" x2="450" y2="180" style="stroke:rgba(255, 165, 0, 255);stroke-linecap:square;stroke-width:2" />
	<line x1="400" y1="180" x2="400" y2="280" style="stroke:rgba(255, 165, 0, 255);stroke-linecap:square;stroke-width:2" />
	<line x1="400" y1="280" x2="600" y2="280" style="stroke:rgba(255, 165, 0, 255);stroke-linecap:square;stroke-width:2" />
	<line x1="600" y1="280" x2="600" y2="470" style="stroke:rgba(255, 165, 0, 255);stroke-linecap:square;stroke-width:2" />
	<line x1="600" y1="470" x2="660" y2="470" style="stroke:rgba(255, 165, 0, 255);stroke-linecap:square;stroke-width:2" />
	<line x1="390" y1="170" x2="450" y2="170" style="stroke:rgba(34, 139, 34, 255);stroke-linecap:square;stroke-width:2" />
	<line x1="390" y1="170" x2="390" y2="290" style="stroke:rgba(34, 139, 34, 255);stroke-linecap:square;stroke-width:2" />
	<line x1="390" y1="290" x2="610" y2="290" style="stroke:rgba(34, 139, 34, 255);stroke-linecap:square;stroke-width:2" />
	<line x1="610" y1="290" x2="610" y2="460" style="stroke:rgba(34, 139, 34, 255);stroke-linecap:square;stroke-width:2" />
	<line x1="610" y1="460" x2="660" y2="460" style="stroke:rgba(34, 139, 34, 255);stroke-linecap:square;stroke-width:2" />
	<line x1="190" y1="140" x2="190" y2="210" style="stroke:rgb(0, 0, 0);stroke-linecap:square;stroke-width:2" />
	<line x1="170" y1="170" x2="330" y2="170" style="stroke:rgba(34, 139, 34, 255);stroke-linecap:square;stroke-width:2" />
	<line x1="330" y1="120" x2="450" y2="120" style="stroke:rgba(34, 139, 34, 255);stroke-linecap:square;stroke-width:2" />
	<line x1="330" y1="120" x2="330" y2="170" style="stroke:rgba(34, 139, 34, 255);stroke-linecap:square;stroke-width:2" />
	<line x1="170" y1="170" x2="170" y2="210" style="stroke:rgba(34, 139, 34, 255);stroke-linecap:square;stroke-width:2" />
	<line x1="190" y1="210" x2="200" y2="210" style="stroke:rgb(0, 0, 0);stroke-linecap:square;stroke-width:2" />
	<line x1="220" y1="140" x2="220" y2="152" style="stroke:rgb(0, 0, 0);stroke-linecap:square;stroke-width:2" />
	<path d="M 212,152 L 228,152 L 220,160 L 212,152" style="fill-opacity:0;fill:rgb(0, 0, 0);stroke:rgb(0, 0, 0);stroke-linecap:square;stroke-width:2" />
	<line x1="190" y1="140" x2="220" y2="140" style="stroke:rgb(0, 0, 0);stroke-linecap:square;stroke-width:2" />
	<line x1="260" y1="240" x2="260" y2="250" style="stroke:rgba(255, 0, 0, 255);stroke-linecap:square;stroke-width:2" />
	<line x1="210" y1="240" x2="260" y2="240" style="stroke:rgba(255, 0, 0, 255);stroke-linecap:square;stroke-width:2" />
	<text x="245" y="250" style="font-family:Arial;font-size:12px;text-anchor:end" dominant-baseline="middle" transform="rotate(0, 245, 250)">+3.3V</text>
	<line x1="250" y1="250" x2="260" y2="250" style="stroke:rgb(0, 0, 0);stroke-linecap:square;stroke-width:2" />
	<line x1="190" y1="240" x2="210" y2="240" style="stroke:rgba(255, 0, 0, 255);stroke-linecap:square;stroke-width:2" />
	<line x1="190" y1="220" x2="190" y2="240" style="stroke:rgba(255, 0, 0, 255);stroke-linecap:square;stroke-width:2" />
	<line x1="190" y1="220" x2="200" y2="220" style="stroke:rgba(255, 0, 0, 255);stroke-linecap:square;stroke-width:2" />
	<line x1="180" y1="200" x2="200" y2="200" style="stroke:rgba(255, 0, 0, 255);stroke-linecap:square;stroke-width:2" />
	<line x1="180" y1="200" x2="180" y2="230" style="stroke:rgba(255, 0, 0, 255);stroke-linecap:square;stroke-width:2" />
	<line x1="160" y1="230" x2="180" y2="230" style="stroke:rgba(255, 0, 0, 255);stroke-linecap:square;stroke-width:2" />
	<text x="260" y="180" style="font-family:Arial;font-size:11px;text-anchor:middle" dominant-baseline="middle" transform="rotate(0, 260, 180)">Power Boost Chip</text>
	<rect x="210" y="190" width="100" height="40" style="fill-opacity:0;fill:rgb(0, 0, 0);stroke:rgb(0, 0, 0);stroke-width:2" />
	<line x1="200" y1="200" x2="210" y2="200" style="stroke:rgb(0, 0, 0);stroke-linecap:square;stroke-width:2" />
	<text x="214" y="200" style="font-family:Arial;font-size:11px;text-anchor:start" dominant-baseline="middle" transform="rotate(0, 214, 200)">VO</text>
	<line x1="200" y1="210" x2="210" y2="210" style="stroke:rgb(0, 0, 0);stroke-linecap:square;stroke-width:2" />
	<text x="214" y="210" style="font-family:Arial;font-size:11px;text-anchor:start" dominant-baseline="middle" transform="rotate(0, 214, 210)">GND</text>
	<line x1="200" y1="220" x2="210" y2="220" style="stroke:rgb(0, 0, 0);stroke-linecap:square;stroke-width:2" />
	<text x="214" y="220" style="font-family:Arial;font-size:11px;text-anchor:start" dominant-baseline="middle" transform="rotate(0, 214, 220)">VI</text>
	<line x1="40" y1="310" x2="50" y2="310" style="stroke:rgba(255, 165, 0, 255);stroke-linecap:square;stroke-width:2" />
	<line x1="40" y1="260" x2="40" y2="310" style="stroke:rgba(255, 165, 0, 255);stroke-linecap:square;stroke-width:2" />
	<line x1="40" y1="260" x2="170" y2="260" style="stroke:rgba(255, 165, 0, 255);stroke-linecap:square;stroke-width:2" />
	<line x1="170" y1="220" x2="170" y2="260" style="stroke:rgba(255, 165, 0, 255);stroke-linecap:square;stroke-width:2" />
	<line x1="630" y1="380" x2="650" y2="380" style="stroke:rgb(0, 0, 0);stroke-linecap:square;stroke-width:2" />
	<line x1="630" y1="380" x2="630" y2="392" style="stroke:rgb(0, 0, 0);stroke-linecap:square;stroke-width:2" />
	<path d="M 622,392 L 638,392 L 630,400 L 622,392" style="fill-opacity:0;fill:rgb(0, 0, 0);stroke:rgb(0, 0, 0);stroke-linecap:square;stroke-width:2" />
	<line x1="650" y1="380" x2="660" y2="380" style="stroke:rgb(0, 0, 0);stroke-linecap:square;stroke-width:2" />
	<text x="660" y="325" style="font-family:Arial;font-size:12px;text-anchor:middle" dominant-baseline="baseline" transform="rotate(0, 660, 325)">+5V</text>
	<line x1="660" y1="330" x2="660" y2="340" style="stroke:rgb(0, 0, 0);stroke-linecap:square;stroke-width:2" />
	<line x1="660" y1="340" x2="660" y2="360" style="stroke:rgba(255, 0, 0, 255);stroke-linecap:square;stroke-width:2" />
	<line x1="370" y1="310" x2="370" y2="390" style="stroke:rgba(255, 165, 0, 255);stroke-linecap:square;stroke-width:2" />
	<line x1="370" y1="390" x2="460" y2="390" style="stroke:rgba(255, 165, 0, 255);stroke-linecap:square;stroke-width:2" />
	<text x="680" y="45" style="font-family:Arial;font-size:12px;text-anchor:middle" dominant-baseline="baseline" transform="rotate(0, 680, 45)">+3.3V</text>
	<line x1="680" y1="50" x2="680" y2="60" style="stroke:rgb(0, 0, 0);stroke-linecap:square;stroke-width:2" />
	<text x="440" y="345" style="font-family:Arial;font-size:12px;text-anchor:middle" dominant-baseline="baseline" transform="rotate(0, 440, 345)">+3.3V</text>
	<line x1="440" y1="350" x2="440" y2="360" style="stroke:rgb(0, 0, 0);stroke-linecap:square;stroke-width:2" />
	<text x="190" y="265" style="font-family:Arial;font-size:12px;text-anchor:middle" dominant-baseline="baseline" transform="rotate(0, 190, 265)">+3.3V</text>
	<line x1="190" y1="270" x2="190" y2="280" style="stroke:rgb(0, 0, 0);stroke-linecap:square;stroke-width:2" />
	<text x="320" y="55" style="font-family:Arial;font-size:12px;text-anchor:middle" dominant-baseline="baseline" transform="rotate(0, 320, 55)">+3.3V</text>
	<line x1="320" y1="60" x2="320" y2="70" style="stroke:rgb(0, 0, 0);stroke-linecap:square;stroke-width:2" />
	<text x="720" y="330" style="font-family:Arial;font-size:11px;text-anchor:middle" dominant-baseline="middle" transform="rotate(0, 720, 330)">Adalogger</text>
	<rect x="670" y="340" width="100" height="170" style="fill-opacity:0;fill:rgb(0, 0, 0);stroke:rgb(0, 0, 0);stroke-width:2" />
	<line x1="660" y1="360" x2="670" y2="360" style="stroke:rgb(0, 0, 0);stroke-linecap:square;stroke-width:2" />
	<text x="674" y="360" style="font-family:Arial;font-size:11px;text-anchor:start" dominant-baseline="middle" transform="rotate(0, 674, 360)">3V.3</text>
	<line x1="660" y1="370" x2="670" y2="370" style="stroke:rgb(0, 0, 0);stroke-linecap:square;stroke-width:2" />
	<text x="674" y="370" style="font-family:Arial;font-size:11px;text-anchor:start" dominant-baseline="middle" transform="rotate(0, 674, 370)">ARf</text>
	<line x1="660" y1="380" x2="670" y2="380" style="stroke:rgb(0, 0, 0);stroke-linecap:square;stroke-width:2" />
	<text x="674" y="380" style="font-family:Arial;font-size:11px;text-anchor:start" dominant-baseline="middle" transform="rotate(0, 674, 380)">GND</text>
	<line x1="660" y1="390" x2="670" y2="390" style="stroke:rgb(0, 0, 0);stroke-linecap:square;stroke-width:2" />
	<text x="674" y="390" style="font-family:Arial;font-size:11px;text-anchor:start" dominant-baseline="middle" transform="rotate(0, 674, 390)">A0</text>
	<line x1="770" y1="450" x2="780" y2="450" style="stroke:rgb(0, 0, 0);stroke-linecap:square;stroke-width:2" />
	<text x="766" y="450" style="font-family:Arial;font-size:11px;text-anchor:end" dominant-baseline="middle" transform="rotate(0, 766, 450)">SDCS</text>
	<line x1="660" y1="460" x2="670" y2="460" style="stroke:rgb(0, 0, 0);stroke-linecap:square;stroke-width:2" />
	<text x="674" y="460" style="font-family:Arial;font-size:11px;text-anchor:start" dominant-baseline="middle" transform="rotate(0, 674, 460)">SCK</text>
	<line x1="660" y1="470" x2="670" y2="470" style="stroke:rgb(0, 0, 0);stroke-linecap:square;stroke-width:2" />
	<text x="674" y="470" style="font-family:Arial;font-size:11px;text-anchor:start" dominant-baseline="middle" transform="rotate(0, 674, 470)">SPIMOSI</text>
	<line x1="660" y1="480" x2="670" y2="480" style="stroke:rgb(0, 0, 0);stroke-linecap:square;stroke-width:2" />
	<text x="674" y="480" style="font-family:Arial;font-size:11px;text-anchor:start" dominant-baseline="middle" transform="rotate(0, 674, 480)">SPIMISO</text>
	<line x1="770" y1="490" x2="780" y2="490" style="stroke:rgb(0, 0, 0);stroke-linecap:square;stroke-width:2" />
	<text x="766" y="490" style="font-family:Arial;font-size:11px;text-anchor:end" dominant-baseline="middle" transform="rotate(0, 766, 490)">SCL</text>
	<line x1="770" y1="500" x2="780" y2="500" style="stroke:rgb(0, 0, 0);stroke-linecap:square;stroke-width:2" />
	<text x="766" y="500" style="font-family:Arial;font-size:11px;text-anchor:end" dominant-baseline="middle" transform="rotate(0, 766, 500)">SDA</text>
	<line x1="680" y1="100" x2="680" y2="110" style="stroke:rgba(0, 0, 0, 255);stroke-linecap:square;stroke-width:2" />
	<line x1="680" y1="110" x2="680" y2="110" style="stroke:rgb(0, 0, 0);stroke-linecap:square;stroke-width:2" />
	<line x1="680" y1="110" x2="680" y2="118" style="stroke:rgb(0, 0, 0);stroke-linecap:square;stroke-width:2" />
	<path d="M 672,118 L 688,118 L 680,126 L 672,118" style="fill-opacity:0;fill:rgb(0, 0, 0);stroke:rgb(0, 0, 0);stroke-linecap:square;stroke-width:2" />
	<line x1="680" y1="100" x2="700" y2="100" style="stroke:rgba(0, 0, 0, 255);stroke-linecap:square;stroke-width:2" />
	<line x1="680" y1="60" x2="680" y2="80" style="stroke:rgba(255, 0, 0, 255);stroke-linecap:square;stroke-width:2" />
	<line x1="680" y1="80" x2="690" y2="80" style="stroke:rgba(255, 0, 0, 255);stroke-linecap:square;stroke-width:2" />
	<line x1="420" y1="200" x2="450" y2="200" style="stroke:rgba(34, 139, 34, 255);stroke-linecap:square;stroke-width:2" />
	<line x1="420" y1="200" x2="420" y2="300" style="stroke:rgba(34, 139, 34, 255);stroke-linecap:square;stroke-width:2" />
	<line x1="420" y1="300" x2="670" y2="300" style="stroke:rgba(34, 139, 34, 255);stroke-linecap:square;stroke-width:2" />
	<line x1="670" y1="200" x2="670" y2="300" style="stroke:rgba(34, 139, 34, 255);stroke-linecap:square;stroke-width:2" />
	<line x1="670" y1="200" x2="690" y2="200" style="stroke:rgba(34, 139, 34, 255);stroke-linecap:square;stroke-width:2" />
	<line x1="430" y1="210" x2="450" y2="210" style="stroke:rgba(255, 165, 0, 255);stroke-linecap:square;stroke-width:2" />
	<line x1="430" y1="210" x2="430" y2="310" style="stroke:rgba(255, 165, 0, 255);stroke-linecap:square;stroke-width:2" />
	<line x1="430" y1="310" x2="690" y2="310" style="stroke:rgba(255, 165, 0, 255);stroke-linecap:square;stroke-width:2" />
	<line x1="690" y1="210" x2="690" y2="310" style="stroke:rgba(255, 165, 0, 255);stroke-linecap:square;stroke-width:2" />
	<line x1="370" y1="150" x2="440" y2="150" style="stroke:rgba(255, 165, 0, 255);stroke-linecap:square;stroke-width:2" />
	<line x1="370" y1="150" x2="370" y2="310" style="stroke:rgba(255, 165, 0, 255);stroke-linecap:square;stroke-width:2" />
	<text x="750" y="50" style="font-family:Arial;font-size:11px;text-anchor:middle" dominant-baseline="middle" transform="rotate(0, 750, 50)">GPS</text>
	<rect x="700" y="60" width="100" height="170" style="fill-opacity:0;fill:rgb(0, 0, 0);stroke:rgb(0, 0, 0);stroke-width:2" />
	<line x1="690" y1="80" x2="700" y2="80" style="stroke:rgb(0, 0, 0);stroke-linecap:square;stroke-width:2" />
	<text x="704" y="80" style="font-family:Arial;font-size:11px;text-anchor:start" dominant-baseline="middle" transform="rotate(0, 704, 80)">3V.3</text>
	<line x1="690" y1="100" x2="700" y2="100" style="stroke:rgb(0, 0, 0);stroke-linecap:square;stroke-width:2" />
	<text x="704" y="100" style="font-family:Arial;font-size:11px;text-anchor:start" dominant-baseline="middle" transform="rotate(0, 704, 100)">GND</text>
	<line x1="690" y1="200" x2="700" y2="200" style="stroke:rgb(0, 0, 0);stroke-linecap:square;stroke-width:2" />
	<text x="704" y="200" style="font-family:Arial;font-size:11px;text-anchor:start" dominant-baseline="middle" transform="rotate(0, 704, 200)">RX</text>
	<line x1="690" y1="210" x2="700" y2="210" style="stroke:rgb(0, 0, 0);stroke-linecap:square;stroke-width:2" />
	<text x="704" y="210" style="font-family:Arial;font-size:11px;text-anchor:start" dominant-baseline="middle" transform="rotate(0, 704, 210)">TX</text>
	<line x1="180" y1="310" x2="210" y2="310" style="stroke:rgba(0, 0, 0, 255);stroke-linecap:square;stroke-width:2" />
	<line x1="380" y1="140" x2="450" y2="140" style="stroke:rgba(100, 149, 237, 255);stroke-linecap:square;stroke-width:2" />
	<line x1="370" y1="130" x2="450" y2="130" style="stroke:rgba(255, 165, 0, 255);stroke-linecap:square;stroke-width:2" />
	<line x1="370" y1="110" x2="450" y2="110" style="stroke:rgba(100, 149, 237, 255);stroke-linecap:square;stroke-width:2" />
	<line x1="370" y1="100" x2="450" y2="100" style="stroke:rgba(0, 0, 0, 255);stroke-linecap:square;stroke-width:2" />
	<line x1="370" y1="80" x2="460" y2="80" style="stroke:rgba(255, 0, 0, 255);stroke-linecap:square;stroke-width:2" />
	<line x1="170" y1="310" x2="180" y2="310" style="stroke:rgba(0, 0, 0, 255);stroke-linecap:square;stroke-width:2" />
	<line x1="350" y1="130" x2="370" y2="130" style="stroke:rgba(255, 165, 0, 255);stroke-linecap:square;stroke-width:2" />
	<line x1="350" y1="130" x2="350" y2="250" style="stroke:rgba(255, 165, 0, 255);stroke-linecap:square;stroke-width:2" />
	<line x1="310" y1="250" x2="350" y2="250" style="stroke:rgba(255, 165, 0, 255);stroke-linecap:square;stroke-width:2" />
	<line x1="440" y1="150" x2="460" y2="150" style="stroke:rgba(0, 0, 0, 255);stroke-linecap:square;stroke-width:2" />
	<line x1="140" y1="210" x2="170" y2="210" style="stroke:rgba(34, 139, 34, 255);stroke-linecap:square;stroke-width:2" />
	<text x="170" y="90" style="font-family:Arial;font-size:11px;text-anchor:middle" dominant-baseline="middle" transform="rotate(0, 170, 90)">Unused/reversed</text>
	<rect x="120" y="100" width="100" height="30" style="fill-opacity:0;fill:rgb(0, 0, 0);stroke:rgb(0, 0, 0);stroke-width:2" />
	<line x1="220" y1="110" x2="230" y2="110" style="stroke:rgba(100, 149, 237, 255);stroke-linecap:square;stroke-width:2" />
	<line x1="230" y1="110" x2="230" y2="140" style="stroke:rgba(100, 149, 237, 255);stroke-linecap:square;stroke-width:2" />
	<text x="160" y="40" style="font-family:Arial;font-size:11px;text-anchor:middle" dominant-baseline="middle" transform="rotate(0, 160, 40)">Unused/reversed</text>
	<rect x="110" y="50" width="100" height="30" style="fill-opacity:0;fill:rgb(0, 0, 0);stroke:rgb(0, 0, 0);stroke-width:2" />
	<line x1="210" y1="60" x2="260" y2="60" style="stroke:rgba(100, 149, 237, 255);stroke-linecap:square;stroke-width:2" />
	<line x1="260" y1="60" x2="260" y2="110" style="stroke:rgba(100, 149, 237, 255);stroke-linecap:square;stroke-width:2" />
	<line x1="320" y1="70" x2="320" y2="80" style="stroke:rgba(255, 0, 0, 255);stroke-linecap:square;stroke-width:2" />
	<line x1="320" y1="80" x2="370" y2="80" style="stroke:rgba(255, 0, 0, 255);stroke-linecap:square;stroke-width:2" />
	<line x1="210" y1="310" x2="210" y2="330" style="stroke:rgba(0, 0, 0, 255);stroke-linecap:square;stroke-width:2" />
	<line x1="210" y1="330" x2="210" y2="332" style="stroke:rgb(0, 0, 0);stroke-linecap:square;stroke-width:2" />
	<path d="M 202,332 L 218,332 L 210,340 L 202,332" style="fill-opacity:0;fill:rgb(0, 0, 0);stroke:rgb(0, 0, 0);stroke-linecap:square;stroke-width:2" />
	<line x1="190" y1="280" x2="190" y2="300" style="stroke:rgba(255, 0, 0, 255);stroke-linecap:square;stroke-width:2" />
	<line x1="170" y1="300" x2="190" y2="300" style="stroke:rgba(255, 0, 0, 255);stroke-linecap:square;stroke-width:2" />
	<line x1="140" y1="220" x2="170" y2="220" style="stroke:rgba(255, 165, 0, 255);stroke-linecap:square;stroke-width:2" />
	<text x="110" y="280" style="font-family:Arial;font-size:11px;text-anchor:middle" dominant-baseline="middle" transform="rotate(0, 110, 280)">Level Shifter</text>
	<rect x="60" y="290" width="100" height="40" style="fill-opacity:0;fill:rgb(0, 0, 0);stroke:rgb(0, 0, 0);stroke-width:2" />
	<line x1="160" y1="300" x2="170" y2="300" style="stroke:rgb(0, 0, 0);stroke-linecap:square;stroke-width:2" />
	<text x="156" y="300" style="font-family:Arial;font-size:11px;text-anchor:end" dominant-baseline="middle" transform="rotate(0, 156, 300)">3V3</text>
	<line x1="50" y1="310" x2="60" y2="310" style="stroke:rgb(0, 0, 0);stroke-linecap:square;stroke-width:2" />
	<text x="64" y="310" style="font-family:Arial;font-size:11px;text-anchor:start" dominant-baseline="middle" transform="rotate(0, 64, 310)">VI</text>
	<line x1="160" y1="310" x2="170" y2="310" style="stroke:rgb(0, 0, 0);stroke-linecap:square;stroke-width:2" />
	<text x="156" y="310" style="font-family:Arial;font-size:11px;text-anchor:end" dominant-baseline="middle" transform="rotate(0, 156, 310)">GND</text>
	<line x1="160" y1="320" x2="170" y2="320" style="stroke:rgb(0, 0, 0);stroke-linecap:square;stroke-width:2" />
	<text x="156" y="320" style="font-family:Arial;font-size:11px;text-anchor:end" dominant-baseline="middle" transform="rotate(0, 156, 320)">VO</text>
	<line x1="390" y1="400" x2="390" y2="412" style="stroke:rgb(0, 0, 0);stroke-linecap:square;stroke-width:2" />
	<path d="M 382,412 L 398,412 L 390,420 L 382,412" style="fill-opacity:0;fill:rgb(0, 0, 0);stroke:rgb(0, 0, 0);stroke-linecap:square;stroke-width:2" />
	<line x1="140" y1="160" x2="140" y2="170" style="stroke:rgba(0, 0, 0, 255);stroke-linecap:square;stroke-width:2" />
	<line x1="140" y1="170" x2="140" y2="170" style="stroke:rgb(0, 0, 0);stroke-linecap:square;stroke-width:2" />
	<line x1="140" y1="170" x2="140" y2="178" style="stroke:rgb(0, 0, 0);stroke-linecap:square;stroke-width:2" />
	<path d="M 132,178 L 148,178 L 140,186 L 132,178" style="fill-opacity:0;fill:rgb(0, 0, 0);stroke:rgb(0, 0, 0);stroke-linecap:square;stroke-width:2" />
	<line x1="280" y1="80" x2="280" y2="90" style="stroke:rgb(0, 0, 0);stroke-linecap:square;stroke-width:2" />
	<line x1="280" y1="80" x2="300" y2="80" style="stroke:rgb(0, 0, 0);stroke-linecap:square;stroke-width:2" />
	<line x1="300" y1="80" x2="300" y2="100" style="stroke:rgba(0, 0, 0, 255);stroke-linecap:square;stroke-width:2" />
	<line x1="300" y1="100" x2="370" y2="100" style="stroke:rgb(0, 0, 0);stroke-linecap:square;stroke-width:2" />
	<line x1="280" y1="90" x2="280" y2="92" style="stroke:rgb(0, 0, 0);stroke-linecap:square;stroke-width:2" />
	<path d="M 272,92 L 288,92 L 280,100 L 272,92" style="fill-opacity:0;fill:rgb(0, 0, 0);stroke:rgb(0, 0, 0);stroke-linecap:square;stroke-width:2" />
	<line x1="260" y1="110" x2="370" y2="110" style="stroke:rgba(100, 149, 237, 255);stroke-linecap:square;stroke-width:2" />
	<line x1="390" y1="400" x2="470" y2="400" style="stroke:rgb(0, 0, 0);stroke-linecap:square;stroke-width:2" />
	<line x1="440" y1="360" x2="440" y2="380" style="stroke:rgba(255, 0, 0, 255);stroke-linecap:square;stroke-width:2" />
	<line x1="440" y1="380" x2="460" y2="380" style="stroke:rgba(255, 0, 0, 255);stroke-linecap:square;stroke-width:2" />
	<text x="520" y="360" style="font-family:Arial;font-size:11px;text-anchor:middle" dominant-baseline="middle" transform="rotate(0, 520, 360)">Temperature Sensor</text>
	<rect x="470" y="370" width="100" height="40" style="fill-opacity:0;fill:rgb(0, 0, 0);stroke:rgb(0, 0, 0);stroke-width:2" />
	<line x1="460" y1="380" x2="470" y2="380" style="stroke:rgb(0, 0, 0);stroke-linecap:square;stroke-width:2" />
	<text x="474" y="380" style="font-family:Arial;font-size:11px;text-anchor:start" dominant-baseline="middle" transform="rotate(0, 474, 380)">VIN</text>
	<line x1="460" y1="390" x2="470" y2="390" style="stroke:rgb(0, 0, 0);stroke-linecap:square;stroke-width:2" />
	<text x="474" y="390" style="font-family:Arial;font-size:11px;text-anchor:start" dominant-baseline="middle" transform="rotate(0, 474, 390)">Analog Output</text>
	<line x1="230" y1="140" x2="380" y2="140" style="stroke:rgba(100, 149, 237, 255);stroke-linecap:square;stroke-width:2" />
	<line x1="140" y1="160" x2="160" y2="160" style="stroke:rgb(0, 0, 0);stroke-linecap:square;stroke-width:2" />
	<line x1="160" y1="160" x2="160" y2="180" style="stroke:rgb(0, 0, 0);stroke-linecap:square;stroke-width:2" />
	<line x1="160" y1="180" x2="160" y2="200" style="stroke:rgba(0, 0, 0, 255);stroke-linecap:square;stroke-width:2" />
	<line x1="140" y1="200" x2="160" y2="200" style="stroke:rgba(0, 0, 0, 255);stroke-linecap:square;stroke-width:2" />
	<line x1="140" y1="230" x2="160" y2="230" style="stroke:rgba(255, 0, 0, 255);stroke-linecap:square;stroke-width:2" />
	<text x="80" y="180" style="font-family:Arial;font-size:11px;text-anchor:middle" dominant-baseline="middle" transform="rotate(0, 80, 180)">Distance Sensor</text>
	<rect x="30" y="190" width="100" height="50" style="fill-opacity:0;fill:rgb(0, 0, 0);stroke:rgb(0, 0, 0);stroke-width:2" />
	<line x1="130" y1="200" x2="140" y2="200" style="stroke:rgb(0, 0, 0);stroke-linecap:square;stroke-width:2" />
	<text x="126" y="200" style="font-family:Arial;font-size:11px;text-anchor:end" dominant-baseline="middle" transform="rotate(0, 126, 200)">GND</text>
	<line x1="130" y1="210" x2="140" y2="210" style="stroke:rgb(0, 0, 0);stroke-linecap:square;stroke-width:2" />
	<text x="126" y="210" style="font-family:Arial;font-size:11px;text-anchor:end" dominant-baseline="middle" transform="rotate(0, 126, 210)">ECHO</text>
	<line x1="130" y1="220" x2="140" y2="220" style="stroke:rgb(0, 0, 0);stroke-linecap:square;stroke-width:2" />
	<text x="126" y="220" style="font-family:Arial;font-size:11px;text-anchor:end" dominant-baseline="middle" transform="rotate(0, 126, 220)">TRIG</text>
	<line x1="130" y1="230" x2="140" y2="230" style="stroke:rgb(0, 0, 0);stroke-linecap:square;stroke-width:2" />
	<text x="126" y="230" style="font-family:Arial;font-size:11px;text-anchor:end" dominant-baseline="middle" transform="rotate(0, 126, 230)">5V</text>
	<text x="510" y="50" style="font-family:Arial;font-size:11px;text-anchor:middle" dominant-baseline="middle" transform="rotate(0, 510, 50)">Boron LTE</text>
	<rect x="460" y="60" width="100" height="170" style="fill-opacity:0;fill:rgb(0, 0, 0);stroke:rgb(0, 0, 0);stroke-width:2" />
	<line x1="450" y1="70" x2="460" y2="70" style="stroke:rgb(0, 0, 0);stroke-linecap:square;stroke-width:2" />
	<text x="464" y="70" style="font-family:Arial;font-size:11px;text-anchor:start" dominant-baseline="middle" transform="rotate(0, 464, 70)">RST</text>
	<line x1="450" y1="80" x2="460" y2="80" style="stroke:rgb(0, 0, 0);stroke-linecap:square;stroke-width:2" />
	<text x="464" y="80" style="font-family:Arial;font-size:11px;text-anchor:start" dominant-baseline="middle" transform="rotate(0, 464, 80)">3V.3</text>
	<line x1="450" y1="90" x2="460" y2="90" style="stroke:rgb(0, 0, 0);stroke-linecap:square;stroke-width:2" />
	<text x="464" y="90" style="font-family:Arial;font-size:11px;text-anchor:start" dominant-baseline="middle" transform="rotate(0, 464, 90)">MD</text>
	<line x1="450" y1="100" x2="460" y2="100" style="stroke:rgb(0, 0, 0);stroke-linecap:square;stroke-width:2" />
	<text x="464" y="100" style="font-family:Arial;font-size:11px;text-anchor:start" dominant-baseline="middle" transform="rotate(0, 464, 100)">GND</text>
	<line x1="450" y1="110" x2="460" y2="110" style="stroke:rgb(0, 0, 0);stroke-linecap:square;stroke-width:2" />
	<text x="464" y="110" style="font-family:Arial;font-size:11px;text-anchor:start" dominant-baseline="middle" transform="rotate(0, 464, 110)">A0</text>
	<line x1="450" y1="120" x2="460" y2="120" style="stroke:rgb(0, 0, 0);stroke-linecap:square;stroke-width:2" />
	<text x="464" y="120" style="font-family:Arial;font-size:11px;text-anchor:start" dominant-baseline="middle" transform="rotate(0, 464, 120)">A1</text>
	<line x1="560" y1="120" x2="570" y2="120" style="stroke:rgb(0, 0, 0);stroke-linecap:square;stroke-width:2" />
	<text x="556" y="120" style="font-family:Arial;font-size:11px;text-anchor:end" dominant-baseline="middle" transform="rotate(0, 556, 120)">Li+</text>
	<line x1="450" y1="130" x2="460" y2="130" style="stroke:rgb(0, 0, 0);stroke-linecap:square;stroke-width:2" />
	<text x="464" y="130" style="font-family:Arial;font-size:11px;text-anchor:start" dominant-baseline="middle" transform="rotate(0, 464, 130)">A2</text>
	<line x1="560" y1="130" x2="570" y2="130" style="stroke:rgb(0, 0, 0);stroke-linecap:square;stroke-width:2" />
	<text x="556" y="130" style="font-family:Arial;font-size:11px;text-anchor:end" dominant-baseline="middle" transform="rotate(0, 556, 130)">EN</text>
	<line x1="450" y1="140" x2="460" y2="140" style="stroke:rgb(0, 0, 0);stroke-linecap:square;stroke-width:2" />
	<text x="464" y="140" style="font-family:Arial;font-size:11px;text-anchor:start" dominant-baseline="middle" transform="rotate(0, 464, 140)">A3</text>
	<line x1="560" y1="140" x2="570" y2="140" style="stroke:rgb(0, 0, 0);stroke-linecap:square;stroke-width:2" />
	<text x="556" y="140" style="font-family:Arial;font-size:11px;text-anchor:end" dominant-baseline="middle" transform="rotate(0, 556, 140)">VUSB</text>
	<line x1="450" y1="150" x2="460" y2="150" style="stroke:rgb(0, 0, 0);stroke-linecap:square;stroke-width:2" />
	<text x="464" y="150" style="font-family:Arial;font-size:11px;text-anchor:start" dominant-baseline="middle" transform="rotate(0, 464, 150)">A4</text>
	<line x1="560" y1="150" x2="570" y2="150" style="stroke:rgb(0, 0, 0);stroke-linecap:square;stroke-width:2" />
	<text x="556" y="150" style="font-family:Arial;font-size:11px;text-anchor:end" dominant-baseline="middle" transform="rotate(0, 556, 150)">D7D8</text>
	<line x1="450" y1="160" x2="460" y2="160" style="stroke:rgb(0, 0, 0);stroke-linecap:square;stroke-width:2" />
	<text x="464" y="160" style="font-family:Arial;font-size:11px;text-anchor:start" dominant-baseline="middle" transform="rotate(0, 464, 160)">A5</text>
	<line x1="560" y1="160" x2="570" y2="160" style="stroke:rgb(0, 0, 0);stroke-linecap:square;stroke-width:2" />
	<text x="556" y="160" style="font-family:Arial;font-size:11px;text-anchor:end" dominant-baseline="middle" transform="rotate(0, 556, 160)">D6</text>
	<line x1="450" y1="170" x2="460" y2="170" style="stroke:rgb(0, 0, 0);stroke-linecap:square;stroke-width:2" />
	<text x="464" y="170" style="font-family:Arial;font-size:11px;text-anchor:start" dominant-baseline="middle" transform="rotate(0, 464, 170)">SCK</text>
	<line x1="560" y1="170" x2="570" y2="170" style="stroke:rgb(0, 0, 0);stroke-linecap:square;stroke-width:2" />
	<text x="556" y="170" style="font-family:Arial;font-size:11px;text-anchor:end" dominant-baseline="middle" transform="rotate(0, 556, 170)">D5</text>
	<line x1="450" y1="180" x2="460" y2="180" style="stroke:rgb(0, 0, 0);stroke-linecap:square;stroke-width:2" />
	<text x="464" y="180" style="font-family:Arial;font-size:11px;text-anchor:start" dominant-baseline="middle" transform="rotate(0, 464, 180)">MO</text>
	<line x1="560" y1="180" x2="570" y2="180" style="stroke:rgb(0, 0, 0);stroke-linecap:square;stroke-width:2" />
	<text x="556" y="180" style="font-family:Arial;font-size:11px;text-anchor:end" dominant-baseline="middle" transform="rotate(0, 556, 180)">D4</text>
	<line x1="450" y1="190" x2="460" y2="190" style="stroke:rgb(0, 0, 0);stroke-linecap:square;stroke-width:2" />
	<text x="464" y="190" style="font-family:Arial;font-size:11px;text-anchor:start" dominant-baseline="middle" transform="rotate(0, 464, 190)">MI</text>
	<line x1="560" y1="190" x2="570" y2="190" style="stroke:rgb(0, 0, 0);stroke-linecap:square;stroke-width:2" />
	<text x="556" y="190" style="font-family:Arial;font-size:11px;text-anchor:end" dominant-baseline="middle" transform="rotate(0, 556, 190)">D3</text>
	<line x1="450" y1="200" x2="460" y2="200" style="stroke:rgb(0, 0, 0);stroke-linecap:square;stroke-width:2" />
	<text x="464" y="200" style="font-family:Arial;font-size:11px;text-anchor:start" dominant-baseline="middle" transform="rotate(0, 464, 200)">RX</text>
	<line x1="560" y1="200" x2="570" y2="200" style="stroke:rgb(0, 0, 0);stroke-linecap:square;stroke-width:2" />
	<text x="556" y="200" style="font-family:Arial;font-size:11px;text-anchor:end" dominant-baseline="middle" transform="rotate(0, 556, 200)">D2</text>
	<line x1="450" y1="210" x2="460" y2="210" style="stroke:rgb(0, 0, 0);stroke-linecap:square;stroke-width:2" />
	<text x="464" y="210" style="font-family:Arial;font-size:11px;text-anchor:start" dominant-baseline="middle" transform="rotate(0, 464, 210)">TX</text>
	<line x1="560" y1="210" x2="570" y2="210" style="stroke:rgb(0, 0, 0);stroke-linecap:square;stroke-width:2" />
	<text x="556" y="210" style="font-family:Arial;font-size:11px;text-anchor:end" dominant-baseline="middle" transform="rotate(0, 556, 210)">SCL</text>
	<line x1="450" y1="220" x2="460" y2="220" style="stroke:rgb(0, 0, 0);stroke-linecap:square;stroke-width:2" />
	<text x="464" y="220" style="font-family:Arial;font-size:11px;text-anchor:start" dominant-baseline="middle" transform="rotate(0, 464, 220)">NC</text>
	<line x1="560" y1="220" x2="570" y2="220" style="stroke:rgb(0, 0, 0);stroke-linecap:square;stroke-width:2" />
	<text x="556" y="220" style="font-family:Arial;font-size:11px;text-anchor:end" dominant-baseline="middle" transform="rotate(0, 556, 220)">SDA</text>
</svg>